<?xml version="1.0" ?>
<!DOCTYPE svg  PUBLIC '-//W3C//DTD SVG 1.0//EN'  'http://www.w3.org/TR/2001/REC-SVG-20010904/DTD/svg10.dtd'>
<!-- Uploaded to: SVG Repo, www.svgrepo.com, Generator: SVG Repo Mixer Tools -->
<svg fill="#000000" width="800px" height="800px" viewBox="0 0 100 100" version="1.0" xml:space="preserve" xmlns="http://www.w3.org/2000/svg" xmlns:xlink="http://www.w3.org/1999/xlink">
<g id="_x31_"/>
<g id="_x32_"/>
<g id="_x33_"/>
<g id="_x34_"/>
<g id="_x35_"/>
<g id="_x36_"/>
<g id="_x37_"/>
<g id="_x38_"/>
<g id="_x39_"/>
<g id="_x31_0"/>
<g id="_x31_1"/>
<g id="_x31_2"/>
<g id="_x31_3"/>
<g id="_x31_4"/>
<g id="_x31_5"/>
<g id="_x31_6"/>
<g id="_x31_7">
<path d="M61.5,61.5c-0.5,0-1-0.2-1.4-0.6l-7.1-7.1c-0.5-0.5-0.7-1.2-0.5-1.9c0.2-0.7,0.7-1.2,1.4-1.4l9.7-2.6   c0.7-0.2,1.4,0,1.9,0.5c0.5,0.5,0.7,1.2,0.5,1.9L63.4,60c-0.2,0.7-0.7,1.2-1.4,1.4C61.8,61.5,61.6,61.5,61.5,61.5z M58.2,53.4   l2.2,2.2l0.8-3L58.2,53.4z M48,48c-0.5,0-1-0.2-1.4-0.6l-7.1-7.1c-0.5-0.5-0.7-1.2-0.5-1.9c0.2-0.7,0.7-1.2,1.4-1.4l9.7-2.6   c0.7-0.2,1.4,0,1.9,0.5c0.5,0.5,0.7,1.2,0.5,1.9l-2.6,9.7c-0.2,0.7-0.7,1.2-1.4,1.4C48.3,48,48.2,48,48,48z M44.7,39.9l2.2,2.2   l0.8-3L44.7,39.9z M88.1,67.3c-0.2-1.5-1.1-2.8-2.5-3.5l-9.3-4.8c1.7-2.9,1.4-6.6-1.1-9.1L50.1,24.8c-2.5-2.5-6.2-2.8-9.1-1.1   l-4.8-9.4c-0.7-1.4-2-2.3-3.5-2.5c-1.5-0.2-3,0.3-4.1,1.3L13.2,28.6c-1.1,1.1-1.6,2.6-1.3,4.1c0.2,1.5,1.2,2.8,2.5,3.5l9.4,4.8   c-0.7,1.1-1.1,2.5-1.1,3.8c0,2,0.8,3.9,2.2,5.3L50,75.2c1.4,1.4,3.3,2.2,5.3,2.2c1.4,0,2.7-0.4,3.8-1.1l4.8,9.3   c0.7,1.4,2,2.3,3.5,2.5c0.2,0,0.5,0.1,0.7,0.1c1.3,0,2.5-0.5,3.4-1.4l15.4-15.4h0C87.9,70.3,88.4,68.8,88.1,67.3z M15.8,32.1   c0-0.1,0-0.4,0.2-0.7l2.9-2.9l2.4,2.4c0.4,0.4,0.9,0.6,1.4,0.6s1-0.2,1.4-0.6c0.8-0.8,0.8-2,0-2.8l-2.4-2.4l4.1-4.1l2.4,2.4   c0.4,0.4,0.9,0.6,1.4,0.6s1-0.2,1.4-0.6c0.8-0.8,0.8-2,0-2.8l-2.4-2.4l2.8-2.8c0.2-0.2,0.4-0.2,0.5-0.2c0,0,0.1,0,0.1,0   c0.1,0,0.4,0.1,0.6,0.4l5.3,10.3L26.5,37.9l-10.3-5.3C15.9,32.5,15.8,32.2,15.8,32.1z M52.8,72.4L27.7,47.3c-0.6-0.6-1-1.5-1-2.4   c0-0.9,0.4-1.8,1-2.4l0.6-0.6l0,0l13.5-13.5c0,0,0,0,0,0l0.6-0.6v0c1.3-1.3,3.5-1.3,4.9,0l25.1,25.1c1.3,1.3,1.3,3.5,0,4.9   l-0.6,0.6c0,0,0,0,0,0L65,65l-7.4,7.4C56.4,73.7,54.1,73.7,52.8,72.4z M84,68.6l-2.8,2.8L78.8,69c-0.8-0.8-2-0.8-2.8,0   c-0.8,0.8-0.8,2,0,2.8l2.4,2.4l-4.1,4.1l-2.4-2.4c-0.8-0.8-2-0.8-2.8,0c-0.8,0.8-0.8,2,0,2.8l2.4,2.4L68.6,84   c-0.2,0.2-0.5,0.2-0.7,0.2c-0.1,0-0.4-0.1-0.5-0.4l-5.2-10.2l5.7-5.7l5.7-5.7l10.2,5.2c0.3,0.1,0.4,0.4,0.4,0.5   C84.2,68.1,84.2,68.4,84,68.6z M57.4,65.4c0.3-1.1-0.4-2.2-1.4-2.4c-0.5-0.1-2.7-1-2.7-2.3c0-3.2-2.8-4.5-4.8-5.5   c-0.9-0.4-1.8-0.9-2.3-1.3c-0.4-0.4-0.7-1.1-1-1.9c-0.7-1.7-1.6-4-5-4.8c-2.3-0.5-2.6-2.3-2.6-2.4c-0.1-1.1-1.1-1.9-2.2-1.8   c-1.1,0.1-1.9,1.1-1.8,2.2c0.2,1.7,1.6,4.9,5.7,5.9c1.3,0.3,1.6,0.9,2.2,2.4c0.4,1,0.9,2.2,1.9,3.3c1,1,2.3,1.6,3.5,2.1   c1.7,0.8,2.5,1.2,2.5,1.8c0,3.7,3.6,5.6,5.7,6.1c0.2,0,0.3,0.1,0.5,0.1C56.4,66.9,57.2,66.3,57.4,65.4z"/>
</g>
<g id="_x31_8"/>
<g id="_x31_9"/>
<g id="_x32_0"/>
<g id="_x32_1"/>
<g id="_x32_2"/>
<g id="_x32_3"/>
</svg>